<svg id="Layer_1" data-name="Layer 1" xmlns="http://www.w3.org/2000/svg" width="1024.375" height="188.5183" viewBox="0 0 1024.375 188.5183">
  <defs>
    <style>
      .cls-1 {
        fill: #a4d426;
      }
      .cls-2 {
        fill: #83ad18;
      }
    </style>
  </defs>
  <title>Buildkite - Logo - for light backgrounds</title>
  <polygon class="cls-1" points="0 7.914 90.302 52.704 90.302 143.006 0 98.216 0 7.914"/>
  <polygon class="cls-1" points="181.326 7.914 270.906 52.704 181.326 98.216 181.326 7.914"/>
  <polygon class="cls-2" points="181.326 7.914 90.302 52.704 90.302 143.006 181.326 98.216 181.326 7.914"/>
  <polygon class="cls-2" points="270.906 52.704 181.326 98.216 181.326 188.518 270.906 143.006 270.906 52.704"/>
  <path d="M396.2539,3.3574c5.1826,0,8.0869,1.2031,11.79,4.9072l7.9922,7.9922c3.6563,3.6572,4.8828,6.6172,4.8828,11.8438V56.8438c0,4.5225-1.1582,7.5693-3.02,9.8594l-2.333,2.3984a1.1031,1.1031,0,0,0-.2939.7031,1.01,1.01,0,0,0,.3438.7041l6.874,6.873C426.1475,81.04,427.374,84,427.374,89.2266V118.71c0,5.2266-1.2266,8.1855-4.8838,11.8438l-7.9922,7.9922c-3.7041,3.7041-6.6055,4.8926-11.7881,4.8926H332.85V9.459L338.95,3.3574h57.3037Zm-0.3994,18.68a5.9559,5.9559,0,0,0-3.9863-1.5742H351.3574V64.4814h40.5068a5.9475,5.9475,0,0,0,3.9854-1.5752l4.9268-4.9219a5.442,5.442,0,0,0,1.6533-3.8V30.7617a5.4481,5.4481,0,0,0-1.6533-3.8018Zm6.4473,61.12a5.9519,5.9519,0,0,0-3.9863-1.5752h-46.958v44.7656h46.9639a5.9519,5.9519,0,0,0,3.9863-1.5752l4.9219-4.9219a5.45,5.45,0,0,0,1.6533-3.8027V91.8818a5.4385,5.4385,0,0,0-1.6533-3.8Z"/>
  <path d="M525.89,43.41V143.4229H510.6475l-1.7266-9.7979-16.1572,7.5342a22.1135,22.1135,0,0,1-10.1631,2.2637H471.4434c-5.1387,0-8.07-1.2148-11.7568-4.9014l-7.9561-7.9561c-3.624-3.624-4.87-6.6309-4.87-11.8281V43.4082h17.3145V117.625a5.3666,5.3666,0,0,0,1.6377,3.7676l4.87,4.877a5.871,5.871,0,0,0,3.9561,1.5488h7.3154A7.9667,7.9667,0,0,0,485.28,127.1l23.2939-10.9473V43.4082Z"/>
  <path d="M568.4268,8.6729V28.5205H548.4043V8.6729h20.0225Zm-1.3535,34.7158V143.44H549.7588V43.3887h17.3145Z"/>
  <path d="M608.6309,0V117.6191a5.2523,5.2523,0,0,0,1.6309,3.7158l5.0088,5.0488a5.9526,5.9526,0,0,0,3.8877,1.5322H630.04V143.44H615.8965c-5.1025,0-8.0176-1.23-11.7578-4.8447L596.9512,131.4c-4.1982-4.1064-5.6367-7.1621-5.6348-12.6787V4.9385L596.249,0h12.3818Z"/>
  <path d="M715.5147,0.0342l4.8027,4.8008V143.3926H704.5879l-1.2315-6.9434-9.372,4.4355a24.4811,24.4811,0,0,1-11.3623,2.5078H666.9258c-5.1924,0-8.06-1.2607-11.7539-4.8467l-7.9561-7.9561c-3.624-3.624-4.8711-6.6318-4.8711-11.8281V69.124c0-5.2031,1.2529-8.2148,4.8906-11.83l9.041-8.9873c3.6943-3.67,6.6211-4.876,11.7559-4.876H703.003V0.03ZM703.003,59.0225H671.22a5.81,5.81,0,0,0-3.9512,1.541l-5.9619,5.9307a5.3622,5.3622,0,0,0-1.6465,3.7725v47.3789a5.3735,5.3735,0,0,0,1.6387,3.7676l4.8926,4.8945a5.8745,5.8745,0,0,0,3.9561,1.5605H682.56a7.9237,7.9237,0,0,0,3.332-.7227L703.003,119.08V59.0225Z"/>
  <path d="M762.41,0.0264V78.2324L807.042,43.44h8.4766l7.8975,7.8662L778.875,85.8584l48.3027,49.95-7.8193,7.6338h-8.5547L767.3369,96.8906l-4.9268,7.3252v39.2266H745.0957V4.9648l4.9326-4.9385H762.41Z"/>
  <path d="M861.9756,8.6729V28.5205H841.9531V8.6729h20.0225Zm-1.3535,34.7158V143.44H843.3076V43.3887h17.3145Z"/>
  <path d="M909.3457,20.4326v22.96h21.8271V58.9707H909.3457v58.74a5.3734,5.3734,0,0,0,1.6367,3.7686l4.8887,4.8916a5.8688,5.8688,0,0,0,3.9561,1.5615H931.169v10.7637l-4.9785,4.7461h-9.5811c-5.1924,0-8.0664-1.2363-11.7539-4.83l-7.9561-7.9561c-3.6221-3.624-4.8691-6.6318-4.8691-11.8281V58.9688H876.6787v-10.77l4.8926-4.8105H892.03v-22.96Z"/>
  <path d="M999.792,43.4063c5.1387,0,8.07,1.2148,11.7568,4.9l7.9561,7.957c3.623,3.623,4.87,6.6309,4.87,11.8281V95.1211l-4.9209,4.9268h-55.24v17.5713a5.37,5.37,0,0,0,1.6367,3.7676l4.8887,4.8945a5.8676,5.8676,0,0,0,3.9541,1.5615H996.57a5.8735,5.8735,0,0,0,3.9541-1.56l6.418-6.417,11.666,11.5938-7.0645,7.0635c-3.6855,3.6865-6.6172,4.9014-11.7559,4.9014H971.4737c-5.1387,0-8.07-1.2148-11.7559-4.9014l-7.9561-7.9561c-3.624-3.623-4.8711-6.6309-4.8711-11.8281V68.0938c0-5.1973,1.2471-8.2051,4.8711-11.8281l7.9561-7.9561c3.6855-3.6865,6.6172-4.9014,11.7559-4.9014Zm0.7363,17.1367a5.8774,5.8774,0,0,0-3.9541-1.5586h-21.877a5.8881,5.8881,0,0,0-3.9561,1.5586l-4.8906,4.8906a5.3675,5.3675,0,0,0-1.6387,3.7686V84.53h42.8457V69.2021a5.3556,5.3556,0,0,0-1.6387-3.7666Z"/>
</svg>
